<mxfile host="app.diagrams.net" modified="2024-06-20T18:47:36.271Z" agent="Mozilla/5.0 (Macintosh; Intel Mac OS X 10_15_7) AppleWebKit/537.36 (KHTML, like Gecko) Chrome/125.0.0.0 Safari/537.36" version="24.5.5" etag="zmcZT45kKZpche6gHTzg" type="github">
  <diagram name="Page-1" id="6UQTfCEHT5Qk8pWRgzpo">
    <mxGraphModel>
      <root>
        <mxCell id="0" />
        <mxCell id="1" parent="0" />
      </root>
    </mxGraphModel>
  </diagram>
</mxfile>
